#!OML:ASF H:\Terrain\Patient Classification 1\Takeo\Monday\TakeoMonday.ASF
:FULLY-SPECIFIED
:DEGREES
16
root 9.19177 16.2456 -29.4408 4.21643 -2.62869 -1.55664
lowerback 10.4784 -1.73771 0.923776
upperback 2.65182 -2.12106 2.34797
thorax -3.05196 -1.05766 2.19089
lowerneck -11.5407 3.02056 -2.86836
upperneck -11.0611 4.16705 -2.02775
head -1.57765 2.19389 -0.0814346
rclavicle -2.5842e-015 -2.94201e-014
rhumerus -41.2369 14.381 -88.8381
rradius 89.7912
rwrist -11.1363
rhand -38.0985 43.5601
rfingers 7.12502
rthumb -11.1342 13.8755
lclavicle -2.5842e-015 -2.94201e-014
lhumerus -51.0662 -30.4359 100.803
lradius 95.0538
lwrist 30.5961
lhand -33.4262 4.09539
lfingers 7.12502
lthumb -6.6257 33.9717
rfemur -26.4414 8.25242 28.9409
rtibia 46.5742
rfoot -22.6914 -9.64417
rtoes 0.744169
lfemur -9.6867 4.66392 -18.5393
ltibia 90.2361
lfoot 6.22192 11.1728
ltoes -11.562
17
root 9.20855 16.1566 -29.1515 3.47397 -3.44925 -2.69837
lowerback 11.8143 -1.57437 2.12484
upperback 2.93502 -1.71981 2.70392
thorax -3.52673 -0.864837 1.87252
lowerneck -11.3477 3.12544 -2.2295
upperneck -11.8016 4.15408 -3.017
head -1.81208 2.18401 -0.506284
rclavicle -1.04362e-014 3.18055e-015
rhumerus -37.1531 15.9859 -87.877
rradius 90.4166
rwrist -10.9078
rhand -38.2709 43.4007
rfingers 7.12502
rthumb -11.3006 13.7252
lclavicle -1.04362e-014 3.18055e-015
lhumerus -52.4927 -28.8623 100.727
lradius 93.4475
lwrist 29.4542
lhand -34.0971 4.14156
lfingers 7.12502
lthumb -7.27332 33.9966
rfemur -24.756 8.4976 30.4292
rtibia 47.508
rfoot -23.8345 -9.16894
rtoes 1.2116
lfemur -11.5437 5.63453 -16.9564
ltibia 94.5746
lfoot 4.06856 10.7859
ltoes -12.217
18
root 9.222 16.0809 -28.855 3.27372 -4.97757 -3.9101
lowerback 12.5992 -1.19151 3.26786
upperback 3.11937 -1.03036 3.02181
thorax -3.78738 -0.532703 1.47667
lowerneck -10.7927 3.3985 -2.51336
upperneck -12.7553 4.50781 -2.92995
head -2.2259 2.39152 -0.454891
rclavicle -1.11319e-014 3.53837e-014
rhumerus -32.8982 17.3941 -86.7961
rradius 91.2239
rwrist -10.4527
rhand -38.3204 43.4962
rfingers 7.12502
rthumb -11.3482 13.8233
lclavicle -1.11319e-014 3.53837e-014
lhumerus -54.0391 -27.4232 100.5
lradius 92.0402
lwrist 28.5512
lhand -35.5039 2.95089
lfingers 7.12502
lthumb -8.63111 32.7545
rfemur -23.3163 9.10895 31.85
rtibia 48.053
rfoot -24.7961 -8.30865
rtoes 1.19028
lfemur -13.7744 7.3103 -15.3411
ltibia 98.4881
lfoot 3.6538 11.0052
ltoes -9.99495
19
root 9.23228 16.0134 -28.5512 3.20845 -6.32212 -4.98618
lowerback 12.9289 -0.829327 4.39905
upperback 3.45369 -0.397477 3.2132
thorax -3.62101 -0.224719 0.943377
lowerneck -11.1091 3.57533 -2.86805
upperneck -12.894 4.8118 -2.57456
head -2.23993 2.55423 -0.277909
rclavicle -3.11098e-014 -1.90833e-014
rhumerus -28.394 18.7097 -85.5367
rradius 92.1272
rwrist -9.99318
rhand -38.4709 44.1532
rfingers 7.12502
rthumb -11.4934 14.4882
lclavicle -3.11098e-014 -1.90833e-014
lhumerus -55.2329 -26.3359 99.9632
lradius 90.7007
lwrist 28.3547
lhand -37.4468 3.24659
lfingers 7.12502
lthumb -10.5057 32.9641
rfemur -21.8755 9.45701 33.0946
rtibia 48.3417
rfoot -25.2336 -7.50935
rtoes 0.43734
lfemur -16.272 8.79519 -13.9529
ltibia 101.967
lfoot 2.54393 10.6785
ltoes -13.4083
20
root 9.23973 15.9709 -28.241 3.29655 -7.47117 -5.3909
lowerback 12.8755 -0.474511 4.93221
upperback 3.82524 0.109861 3.18552
thorax -3.19053 0.0323982 0.532154
lowerneck -12.3354 3.55478 -2.50276
upperneck -12.2054 4.78773 -2.83977
head -1.7978 2.5099 -0.383499
rclavicle 2.18663e-015 -2.38542e-015
rhumerus -23.9229 19.9644 -84.1849
rradius 92.8554
rwrist -9.146
rhand -38.822 44.4031
rfingers 7.12502
rthumb -11.8321 14.7573
lclavicle 2.18663e-015 -2.38542e-015
lhumerus -56.4185 -25.3155 99.3013
lradius 89.5211
lwrist 28.674
lhand -38.3928 4.06271
lfingers 7.12502
lthumb -11.4181 33.7318
rfemur -20.7216 9.45995 33.5432
rtibia 48.5503
rfoot -25.5691 -6.92553
rtoes -1.07049
lfemur -19.0179 10.0919 -13.4679
ltibia 104.856
lfoot 0.536445 10.2501
ltoes -20.2493
21
root 9.24185 15.946 -27.9251 3.57316 -8.4865 -5.46733
lowerback 12.8265 -0.156875 5.20832
upperback 3.83136 0.548512 2.95209
thorax -3.13966 0.249763 0.0658642
lowerneck -12.2542 3.54601 -1.69756
upperneck -12.2596 4.65849 -3.26384
head -1.79732 2.41757 -0.650898
rclavicle -3.81667e-014 2.74323e-014
rhumerus -20.2278 20.8397 -83.3396
rradius 93.5065
rwrist -7.82581
rhand -39.5871 44.6659
rfingers 7.12502
rthumb -12.5697 15.0641
lclavicle -3.81667e-014 2.74323e-014
lhumerus -58.1964 -24.3898 98.6223
lradius 88.5109
lwrist 29.4417
lhand -38.2449 4.63086
lfingers 7.12502
lthumb -11.2755 34.3078
rfemur -19.7208 9.62639 33.5565
rtibia 48.5991
rfoot -26.5468 -6.15954
rtoes 0.638264
lfemur -21.8684 11.1032 -13.4078
ltibia 107.19
lfoot -0.806703 10.364
ltoes -22.5229
22
root 9.24289 15.9259 -27.6049 3.98272 -9.20273 -5.37463
lowerback 12.6442 0.000899301 5.36532
upperback 3.65376 0.76097 2.67143
thorax -3.21237 0.351553 -0.347228
lowerneck -11.4224 3.61028 -1.05554
upperneck -12.7985 4.6376 -3.42244
head -2.08866 2.39618 -0.833836
rclavicle 1.39149e-015 9.93923e-015
rhumerus -16.8512 21.5706 -82.7034
rradius 94.3194
rwrist -6.98561
rhand -39.3553 45.414
rfingers 7.12502
rthumb -12.3462 15.7985
lclavicle 1.39149e-015 9.93923e-015
lhumerus -59.994 -23.3372 97.8335
lradius 87.5642
lwrist 30.429
lhand -37.8136 6.07179
lfingers 7.12502
lthumb -10.8595 35.771
rfemur -18.8395 10.0167 33.3382
rtibia 48.5416
rfoot -27.5213 -5.46025
rtoes 3.3619
lfemur -24.9554 11.5974 -13.6961
ltibia 109.092
lfoot -1.98242 10.5996
ltoes -20.2333
